<mxfile host="app.diagrams.net" agent="Mozilla/5.0 (Windows NT 10.0; Win64; x64) AppleWebKit/537.36 (KHTML, like Gecko) Chrome/130.0.0.0 Safari/537.36 OPR/115.0.0.0" version="24.8.4">
  <diagram name="Page-1" id="Xzq37Yo14lWN8T-NpN67">
    <mxGraphModel dx="1210" dy="628" grid="1" gridSize="10" guides="1" tooltips="1" connect="1" arrows="1" fold="1" page="1" pageScale="1" pageWidth="827" pageHeight="1169" math="0" shadow="0">
      <root>
        <mxCell id="0" />
        <mxCell id="1" parent="0" />
        <mxCell id="LUyt3586z1bEo4N2sk8w-21" style="edgeStyle=orthogonalEdgeStyle;rounded=0;orthogonalLoop=1;jettySize=auto;html=1;entryX=0;entryY=0.5;entryDx=0;entryDy=0;" edge="1" parent="1" source="LUyt3586z1bEo4N2sk8w-5" target="LUyt3586z1bEo4N2sk8w-16">
          <mxGeometry relative="1" as="geometry" />
        </mxCell>
        <mxCell id="LUyt3586z1bEo4N2sk8w-5" value="" style="shape=image;verticalLabelPosition=bottom;labelBackgroundColor=default;verticalAlign=top;aspect=fixed;imageAspect=0;image=https://dt-cdn.net/hub/logos/prometheus.png;" vertex="1" parent="1">
          <mxGeometry x="510" y="247.3" width="59.6" height="59.6" as="geometry" />
        </mxCell>
        <mxCell id="LUyt3586z1bEo4N2sk8w-22" style="edgeStyle=orthogonalEdgeStyle;rounded=0;orthogonalLoop=1;jettySize=auto;html=1;entryX=0;entryY=0.5;entryDx=0;entryDy=0;" edge="1" parent="1" source="LUyt3586z1bEo4N2sk8w-6" target="LUyt3586z1bEo4N2sk8w-16">
          <mxGeometry relative="1" as="geometry" />
        </mxCell>
        <mxCell id="LUyt3586z1bEo4N2sk8w-6" value="" style="shape=image;verticalLabelPosition=bottom;labelBackgroundColor=default;verticalAlign=top;aspect=fixed;imageAspect=0;image=https://lapee79.github.io/en/article/loki-kubernetes-logging/featuredImage_hu32ea944e146594c1b0cba1925deb2048_29654_700x350_fill_q95_box_smart1.jpg;" vertex="1" parent="1">
          <mxGeometry x="490" y="175" width="110" height="55" as="geometry" />
        </mxCell>
        <mxCell id="LUyt3586z1bEo4N2sk8w-20" style="edgeStyle=orthogonalEdgeStyle;rounded=0;orthogonalLoop=1;jettySize=auto;html=1;entryX=0;entryY=0.5;entryDx=0;entryDy=0;" edge="1" parent="1" source="LUyt3586z1bEo4N2sk8w-8" target="LUyt3586z1bEo4N2sk8w-16">
          <mxGeometry relative="1" as="geometry" />
        </mxCell>
        <mxCell id="LUyt3586z1bEo4N2sk8w-8" value="" style="shape=image;verticalLabelPosition=bottom;labelBackgroundColor=default;verticalAlign=top;aspect=fixed;imageAspect=0;image=https://www.vinsguru.com/wp-content/uploads/2020/03/jaeger_new_1.png;" vertex="1" parent="1">
          <mxGeometry x="490" y="330" width="110" height="57.56" as="geometry" />
        </mxCell>
        <mxCell id="LUyt3586z1bEo4N2sk8w-11" style="edgeStyle=orthogonalEdgeStyle;rounded=0;orthogonalLoop=1;jettySize=auto;html=1;entryX=0;entryY=0.5;entryDx=0;entryDy=0;" edge="1" parent="1" source="LUyt3586z1bEo4N2sk8w-10" target="LUyt3586z1bEo4N2sk8w-6">
          <mxGeometry relative="1" as="geometry">
            <Array as="points">
              <mxPoint x="420" y="277" />
              <mxPoint x="420" y="203" />
            </Array>
          </mxGeometry>
        </mxCell>
        <mxCell id="LUyt3586z1bEo4N2sk8w-12" style="edgeStyle=orthogonalEdgeStyle;rounded=0;orthogonalLoop=1;jettySize=auto;html=1;" edge="1" parent="1" source="LUyt3586z1bEo4N2sk8w-10" target="LUyt3586z1bEo4N2sk8w-5">
          <mxGeometry relative="1" as="geometry" />
        </mxCell>
        <mxCell id="LUyt3586z1bEo4N2sk8w-13" style="edgeStyle=orthogonalEdgeStyle;rounded=0;orthogonalLoop=1;jettySize=auto;html=1;entryX=0;entryY=0.5;entryDx=0;entryDy=0;" edge="1" parent="1" target="LUyt3586z1bEo4N2sk8w-8">
          <mxGeometry relative="1" as="geometry">
            <mxPoint x="344.99999999999994" y="277.0961538461538" as="sourcePoint" />
            <mxPoint x="482.32" y="358.78000000000003" as="targetPoint" />
            <Array as="points">
              <mxPoint x="420" y="277" />
              <mxPoint x="420" y="359" />
              <mxPoint x="482" y="359" />
            </Array>
          </mxGeometry>
        </mxCell>
        <mxCell id="LUyt3586z1bEo4N2sk8w-10" value="" style="shape=image;verticalLabelPosition=bottom;labelBackgroundColor=default;verticalAlign=top;aspect=fixed;imageAspect=0;image=https://miro.medium.com/v2/resize:fit:1400/0*zFg4S3_vW1AJJHQJ.png;" vertex="1" parent="1">
          <mxGeometry x="230" y="245" width="122.68" height="64.2" as="geometry" />
        </mxCell>
        <mxCell id="LUyt3586z1bEo4N2sk8w-15" value="" style="edgeStyle=orthogonalEdgeStyle;rounded=0;orthogonalLoop=1;jettySize=auto;html=1;" edge="1" parent="1" source="LUyt3586z1bEo4N2sk8w-14" target="LUyt3586z1bEo4N2sk8w-10">
          <mxGeometry relative="1" as="geometry" />
        </mxCell>
        <mxCell id="LUyt3586z1bEo4N2sk8w-14" value="" style="shape=image;verticalLabelPosition=bottom;labelBackgroundColor=default;verticalAlign=top;aspect=fixed;imageAspect=0;image=https://uxwing.com/wp-content/themes/uxwing/download/brands-and-social-media/microsoft-dot-net-icon.png;" vertex="1" parent="1">
          <mxGeometry x="90" y="242.3" width="69.6" height="69.6" as="geometry" />
        </mxCell>
        <mxCell id="LUyt3586z1bEo4N2sk8w-16" value="" style="shape=image;verticalLabelPosition=bottom;labelBackgroundColor=default;verticalAlign=top;aspect=fixed;imageAspect=0;image=https://www.skedler.com/blog/wp-content/uploads/2021/08/grafana-logo.png;" vertex="1" parent="1">
          <mxGeometry x="770" y="242.3" width="141" height="70.5" as="geometry" />
        </mxCell>
      </root>
    </mxGraphModel>
  </diagram>
</mxfile>
